<svg width="1502" height="1618" viewBox="0 0 1502 1618" fill="none" xmlns="http://www.w3.org/2000/svg">
<g clip-path="url(#clip0_710_588)">
<path d="M749.904 0.000120467C694.6 -0.044784 640.007 12.4646 590.239 36.5856C540.471 60.7066 496.827 95.81 462.595 139.25C525.224 152.876 584.311 179.453 636.059 217.275C687.807 255.097 731.071 303.327 763.072 358.866C795.073 414.405 815.103 476.024 821.875 539.766C828.646 603.507 822.01 667.96 802.392 728.984C894.046 715.716 977.274 668.227 1035.33 596.07C1093.39 523.913 1121.97 432.444 1115.32 340.067C1108.66 247.689 1067.28 161.259 999.481 98.1653C931.685 35.0719 842.512 -0.00214012 749.904 0.000120467Z" fill="#B84297"/>
<path d="M1451.3 401.155C1423.36 353.389 1384.95 312.584 1338.96 281.812C1292.97 251.041 1240.6 231.105 1185.79 223.505C1205.69 284.43 1212.62 348.843 1206.15 412.607C1199.67 476.371 1179.93 538.075 1148.2 593.756C1116.46 649.438 1073.43 697.865 1021.87 735.927C970.312 773.99 911.36 800.846 848.805 814.77C906.574 887.128 989.595 934.927 1081.17 948.555C1172.75 962.182 1266.09 940.628 1342.42 888.226C1418.75 835.824 1472.41 756.462 1492.61 666.099C1512.81 575.737 1498.05 481.077 1451.3 401.155Z" fill="#7209B7"/>
<path d="M1450.59 1214.8C1478.43 1167.02 1495.07 1113.54 1499.26 1058.39C1503.44 1003.24 1495.06 947.86 1474.74 896.421C1431.47 943.709 1378.79 981.421 1320.08 1007.14C1261.37 1032.85 1197.93 1046 1133.83 1045.73C1069.74 1045.47 1006.41 1031.8 947.915 1005.6C889.419 979.402 837.05 941.256 794.172 893.612C759.624 979.497 758.866 1075.28 792.049 1161.7C825.232 1248.12 889.897 1318.77 973.044 1359.46C1056.19 1400.14 1151.66 1407.84 1240.25 1381C1328.84 1354.17 1403.99 1294.79 1450.59 1214.8Z" fill="#4361EE"/>
<path d="M339.491 1046.45C218.932 1039.64 105.942 985.48 25.121 895.757C5.1386 946.887 -3.09454 1001.86 1.03057 1056.6C5.15568 1111.34 21.5335 1164.45 48.9526 1212.01C76.3718 1259.57 114.131 1300.35 159.437 1331.35C204.743 1362.34 256.436 1382.75 310.694 1391.07C275.06 1276.83 285.392 1153.19 339.491 1046.45Z" fill="#4CC9F0"/>
<path d="M366.553 953.46C568.881 953.46 732.901 789.425 732.901 587.079C732.901 384.732 568.881 220.698 366.553 220.698C164.224 220.698 0.204154 384.732 0.204154 587.079C0.204154 789.425 164.224 953.46 366.553 953.46Z" fill="#F72585"/>
<path d="M675.817 1029.49C676.087 989.461 681.58 949.636 692.156 911.026C626.532 977.467 542.18 1022.27 450.392 1039.45C393.746 1117.08 369.878 1213.87 383.935 1308.94C397.992 1404.01 448.848 1489.75 525.535 1547.66C602.222 1605.58 698.598 1631.03 793.877 1618.53C889.157 1606.03 975.707 1556.58 1034.86 1480.84C932.463 1457.95 840.987 1400.68 775.661 1318.56C710.335 1236.44 675.099 1134.43 675.817 1029.49Z" fill="#4895EF"/>
</g>
<defs>
<clipPath id="clip0_710_588">
<rect width="1501.54" height="1618" fill="white"/>
</clipPath>
</defs>
</svg>
